<svg class="icon" viewBox="0 0 1024 1024" version="1.1" xmlns="http://www.w3.org/2000/svg"
     width="16" height="16">
    <path d="M510.350222 77.994667c238.933333 0 432.355556 193.422222 432.355556 432.355555s-193.422222 432.355556-432.355556 432.355556-432.355556-193.422222-432.355555-432.355556 193.422222-432.355556 432.355555-432.355555z m0 73.955555c-51.2 0-96.711111 11.377778-136.533333 28.444445s-79.644444 45.511111-113.777778 73.955555c-34.133333 34.133333-56.888889 73.955556-73.955555 113.777778-17.066667 45.511111-28.444444 91.022222-28.444445 136.533333s11.377778 96.711111 28.444445 136.533334 45.511111 79.644444 73.955555 113.777777c34.133333 34.133333 73.955556 56.888889 113.777778 73.955556 45.511111 17.066667 91.022222 28.444444 136.533333 28.444444s96.711111-11.377778 136.533334-28.444444 79.644444-45.511111 113.777777-73.955556c34.133333-34.133333 56.888889-73.955556 73.955556-113.777777 17.066667-45.511111 28.444444-91.022222 28.444444-136.533334s-11.377778-96.711111-28.444444-136.533333-45.511111-79.644444-73.955556-113.777778c-34.133333-34.133333-73.955556-56.888889-113.777777-73.955555-39.822222-17.066667-85.333333-28.444444-136.533334-28.444445z"
          fill="#AFB1B3"/>
    <path d="M516.380444 337.351111c17.066667-17.066667 39.822222-17.066667 51.2 0l147.911112 147.911111c5.688889 5.688889 11.377778 17.066667 11.377777 28.444445s-5.688889 17.066667-11.377777 28.444444l-147.911112 147.911111c-17.066667 17.066667-39.822222 17.066667-51.2 0s-17.066667-39.822222 0-51.2l85.333334-85.333333h-267.377778c-22.755556 0-39.822222-17.066667-39.822222-39.822222s17.066667-39.822222 39.822222-39.822223h267.377778l-85.333334-85.333333c-17.066667-11.377778-17.066667-34.133333 0-51.2z"
          fill="#AFB1B3"/>
</svg>