<svg class="icon" viewBox="0 0 1024 1024" version="1.1" xmlns="http://www.w3.org/2000/svg"
     width="32" height="32">
    <path d="M819.4 419.6c-203.6-116.6-213-120.8-215.8-125 25.8-34.6 135.2-106 193.6-62.6 17.4 13 30.8 38.8 37.2 62.6 1 8.4 2 16.8 3 25.4 28.2 20.4 57.6 39.4 84.8 61-28.6-42.4-9-142-87.8-202.4-83.2-59.4-220.2 0.2-288.8 83.4 1.6-1-134.6-78.4-434.8-250.2C73.2 258 154.8 410.4 328.2 500c10.4-16.8 19.4-40 28.2-59.6-133-65.2-196-177-193.6-324.6 114.2 65.6 228.4 131 342.4 196.6-21.8 37.8-43.6 75.4-65.6 113.2-125 282.4-150.4 492.2-150.4 522.6 20.8 21.4 41.6 42.6 62.6 64 0.4-22.8 1-45.6 1.4-68.4 8-46.6 15.8-93.4 23.8-140 183.4-58 397.4-212.8 442.4-384.2zM396.6 730.8c36.4-145.2 84-259.4 163.8-384.2 59.6 33.8 119.2 67.6 178.6 101.2-2 32.2-42.4 70.2-61 93.8-68.8 87.2-168.2 146.8-281.4 189.2z m297.8-46c-33.8 24.4-67.6 48.6-101.2 73-0.4 1-1 2-1.4 3 170.4 26.2 207.6 2.6 287.4-10.4v-1.4c-47-10.4-91.2-18.4-131-35.8-18-9.6-36-19-53.8-28.4z"
          fill="#AFB1B3"></path>
    <path d="M757.4 291.2m-19.6 0a19.6 19.6 0 1 0 39.2 0 19.6 19.6 0 1 0-39.2 0Z" fill="#AFB1B3"></path>
</svg>